<svg width="81" height="37" viewBox="0 0 81 37" fill="none" xmlns="http://www.w3.org/2000/svg">
<path d="M9.79627 36.2683V14.2461C9.79627 13.4383 9.79627 12.6129 9.79627 11.7699C9.83139 10.8918 9.86652 9.9962 9.90164 9.08299C8.70745 10.1718 7.37277 11.1201 5.8976 11.928C4.42243 12.7358 2.91213 13.2978 1.36672 13.6139L0.418391 7.50245C1.22622 7.43221 2.12186 7.20391 3.10531 6.81755C4.12388 6.39607 5.14245 5.90435 6.16103 5.34238C7.21472 4.74529 8.16305 4.13063 9.006 3.49841C9.88408 2.83107 10.5514 2.16373 11.008 1.49639H16.9087V36.2683H9.79627ZM24.7596 36.2683V31.3686C27.9206 29.2261 30.59 27.2943 32.7676 25.5733C34.9804 23.8172 36.7541 22.2015 38.0888 20.7263C39.4586 19.216 40.442 17.7935 41.0391 16.4589C41.6713 15.1242 41.9875 13.7895 41.9875 12.4548C41.9875 10.8392 41.4957 9.52203 40.5123 8.50346C39.5288 7.44977 38.1415 6.92292 36.3502 6.92292C34.3833 6.92292 32.8379 7.59026 31.7139 8.92494C30.6251 10.2596 30.028 12.1563 29.9227 14.6149L23.6532 12.2441C23.8288 9.8557 24.461 7.83612 25.5498 6.18533C26.6738 4.49942 28.1841 3.21743 30.0807 2.33935C32.0125 1.42615 34.2252 0.969548 36.719 0.969548C38.8615 0.969548 40.7055 1.26809 42.2509 1.86519C43.8314 2.46228 45.131 3.28767 46.1496 4.34137C47.2032 5.35994 47.9935 6.53657 48.5204 7.87125C49.0472 9.20592 49.3106 10.5933 49.3106 12.0333C49.3106 14.2812 48.7487 16.4062 47.6247 18.4082C46.5359 20.4102 44.85 22.3947 42.567 24.3616C40.284 26.3285 37.3863 28.4007 33.874 30.5784V30.631C34.4009 30.5959 35.0331 30.5608 35.7707 30.5257C36.5434 30.4906 37.3336 30.473 38.1415 30.473C38.9493 30.4379 39.6518 30.4203 40.2489 30.4203H49.8375V36.2683H24.7596ZM68.1096 36.7952C64.6324 36.7952 61.6645 36.0751 59.2059 34.6351C56.7824 33.1599 55.114 31.0525 54.2008 28.3129L61.0499 25.3099C61.2957 26.5743 61.6996 27.628 62.2616 28.471C62.8236 29.2788 63.5787 29.8935 64.5271 30.3149C65.5105 30.7364 66.6696 30.9472 68.0042 30.9472C69.1984 30.9472 70.1994 30.7364 71.0073 30.3149C71.8502 29.8935 72.5 29.2964 72.9566 28.5237C73.4132 27.7509 73.6415 26.8729 73.6415 25.8894C73.6415 24.8357 73.4308 23.9752 73.0093 23.3079C72.6229 22.6405 72.0258 22.1664 71.218 21.8854C70.4102 21.5693 69.3916 21.4112 68.1623 21.4112C67.7057 21.4112 67.2667 21.4288 66.8452 21.4639C66.4588 21.4639 66.0198 21.499 65.5281 21.5693V16.2481C65.809 16.2832 66.09 16.3184 66.371 16.3535C66.6871 16.3535 67.0032 16.3535 67.3193 16.3535C69.2862 16.3535 70.6912 15.9671 71.5341 15.1944C72.4122 14.3866 72.8512 13.1046 72.8512 11.3484C72.8512 9.90839 72.4122 8.80201 71.5341 8.0293C70.6912 7.22147 69.4794 6.81755 67.8989 6.81755C66.213 6.81755 64.8783 7.23903 63.8948 8.08198C62.9114 8.88982 62.2265 10.1367 61.8401 11.8226L55.3599 9.3991C55.7814 7.64295 56.5892 6.13265 57.7834 4.86822C59.0127 3.60378 60.523 2.6379 62.3143 1.97056C64.1056 1.26809 66.09 0.916864 68.2677 0.916864C70.8668 0.916864 73.0269 1.32078 74.7479 2.12861C76.504 2.93644 77.8212 4.04282 78.6992 5.44775C79.6124 6.85267 80.069 8.46834 80.069 10.2947C80.069 11.7348 79.8407 12.9641 79.3841 13.9827C78.9627 14.9661 78.4007 15.8091 77.6982 16.5115C77.0309 17.1789 76.3284 17.6882 75.5908 18.0394C74.8533 18.3906 74.1684 18.6014 73.5361 18.6716V18.8297C74.344 18.8648 75.1694 19.0404 76.0123 19.3565C76.8553 19.6375 77.628 20.0765 78.3304 20.6736C79.068 21.2707 79.6651 22.0434 80.1217 22.9918C80.5783 23.905 80.8066 24.9938 80.8066 26.2582C80.8066 28.3656 80.2447 30.2271 79.1207 31.8428C78.0319 33.4233 76.5392 34.6526 74.6425 35.5307C72.7459 36.3737 70.5682 36.7952 68.1096 36.7952Z" fill="#292E3D"/>
</svg>
