<svg width="61" height="37" viewBox="0 0 61 37" fill="none" xmlns="http://www.w3.org/2000/svg">
<path d="M14.4304 0.188298C8.21357 0.188298 3.26121 2.87522 1.89141 8.61785L8.37163 10.9887C8.84579 7.72221 10.9005 6.0363 14.1143 6.0363C17.2753 6.0363 19.1193 7.72221 19.0666 10.936C19.0666 14.0444 17.17 15.5722 13.3767 15.5722H11.9015V20.63H13.6401C17.8022 20.63 19.8042 21.8417 19.8569 25.1082C19.9096 28.1639 17.6968 30.1659 14.0089 30.1659C10.1629 30.1659 8.21357 28.3219 7.47599 24.5286L0.890397 27.479C2.89242 33.327 7.15988 36.0139 13.9562 36.0139C21.6482 36.0139 26.9693 31.9572 26.9693 26.0565C26.9693 20.5246 22.9653 18.0484 19.7515 18.0484V17.8904C22.2804 17.8904 26.2844 15.2034 26.2844 9.67155C26.2844 4.19234 22.0697 0.188298 14.4304 0.188298ZM46.6137 36.0139C55.8336 36.0139 60.5225 29.8498 60.5225 18.1011C60.5225 6.35241 55.8336 0.188298 46.6137 0.188298C37.3939 0.188298 32.705 6.35241 32.705 18.1011C32.705 29.8498 37.3939 36.0139 46.6137 36.0139ZM46.6137 30.1659C42.1355 30.1659 39.9755 26.3726 39.9755 18.1011C39.9755 9.8296 42.1355 6.0363 46.6137 6.0363C51.0919 6.0363 53.252 9.8296 53.252 18.1011C53.252 26.3726 51.0919 30.1659 46.6137 30.1659Z" fill="#292E3D"/>
</svg>
