<svg width="58" height="37" viewBox="0 0 58 37" fill="none" xmlns="http://www.w3.org/2000/svg">
<path d="M14.0672 36.7952C10.59 36.7952 7.6221 36.0751 5.16347 34.6351C2.73998 33.1599 1.07163 31.0525 0.158426 28.3129L7.00744 25.3099C7.2533 26.5743 7.65722 27.628 8.21919 28.471C8.78116 29.2788 9.53631 29.8935 10.4846 30.3149C11.4681 30.7364 12.6271 30.9472 13.9618 30.9472C15.156 30.9472 16.157 30.7364 16.9649 30.3149C17.8078 29.8935 18.4576 29.2964 18.9142 28.5237C19.3708 27.7509 19.5991 26.8729 19.5991 25.8894C19.5991 24.8357 19.3883 23.9752 18.9669 23.3079C18.5805 22.6405 17.9834 22.1664 17.1756 21.8854C16.3678 21.5693 15.3492 21.4112 14.1199 21.4112C13.6633 21.4112 13.2242 21.4288 12.8028 21.4639C12.4164 21.4639 11.9774 21.499 11.4856 21.5693V16.2481C11.7666 16.2832 12.0476 16.3184 12.3286 16.3535C12.6447 16.3535 12.9608 16.3535 13.2769 16.3535C15.2438 16.3535 16.6487 15.9671 17.4917 15.1944C18.3698 14.3866 18.8088 13.1046 18.8088 11.3484C18.8088 9.90839 18.3698 8.80201 17.4917 8.0293C16.6487 7.22147 15.437 6.81755 13.8565 6.81755C12.1705 6.81755 10.8359 7.23903 9.85241 8.08198C8.86897 8.88982 8.18407 10.1367 7.79771 11.8226L1.31749 9.3991C1.73897 7.64295 2.5468 6.13265 3.74099 4.86822C4.9703 3.60378 6.48059 2.6379 8.27187 1.97056C10.0632 1.26809 12.0476 0.916864 14.2252 0.916864C16.8244 0.916864 18.9844 1.32078 20.7055 2.12861C22.4616 2.93644 23.7787 4.04282 24.6568 5.44775C25.57 6.85267 26.0266 8.46834 26.0266 10.2947C26.0266 11.7348 25.7983 12.9641 25.3417 13.9827C24.9202 14.9661 24.3583 15.8091 23.6558 16.5115C22.9885 17.1789 22.286 17.6882 21.5484 18.0394C20.8108 18.3906 20.1259 18.6014 19.4937 18.6716V18.8297C20.3016 18.8648 21.1269 19.0404 21.9699 19.3565C22.8129 19.6375 23.5856 20.0765 24.288 20.6736C25.0256 21.2707 25.6227 22.0434 26.0793 22.9918C26.5359 23.905 26.7642 24.9938 26.7642 26.2582C26.7642 28.3656 26.2022 30.2271 25.0783 31.8428C23.9895 33.4233 22.4967 34.6526 20.6001 35.5307C18.7034 36.3737 16.5258 36.7952 14.0672 36.7952ZM29.5902 1.49639H57.1444V7.02829C54.2291 9.94351 51.911 12.9465 50.19 16.0374C48.4689 19.1282 47.2221 22.342 46.4494 25.6787C45.7118 29.0154 45.343 32.5453 45.343 36.2683H38.1252C38.1252 32.4048 38.5993 28.6993 39.5477 25.1518C40.5311 21.5693 42.0238 18.1623 44.0259 14.931C46.063 11.6645 48.6446 8.53859 51.7705 5.55312L53.2457 7.44977H29.5902V1.49639Z" fill="#292E3D"/>
</svg>
