<svg width="63" height="37" viewBox="0 0 63 37" fill="none" xmlns="http://www.w3.org/2000/svg">
<path d="M14.1714 0.293666C16.6652 0.293666 18.8252 0.680021 20.6516 1.45273C22.5132 2.19032 23.9357 3.26157 24.9191 4.6665C25.9377 6.0363 26.447 7.70465 26.447 9.67155C26.447 11.498 25.9904 13.0785 25.0772 14.4132C24.1991 15.7479 22.9171 16.7664 21.2312 17.4689V17.5216C23.2683 18.2592 24.8664 19.3304 26.0255 20.7353C27.1845 22.1403 27.7641 23.914 27.7641 26.0565C27.7641 28.0936 27.2021 29.8498 26.0782 31.325C24.9893 32.8001 23.4264 33.9592 21.3892 34.8022C19.3872 35.61 16.9813 36.0139 14.1714 36.0139C11.3967 36.0139 8.99075 35.61 6.95361 34.8022C4.95159 33.9592 3.38861 32.8001 2.26467 31.325C1.17585 29.8498 0.631443 28.0936 0.631443 26.0565C0.631443 23.9491 1.21098 22.1929 2.37004 20.788C3.5291 19.348 5.14477 18.2592 7.21703 17.5216V17.4689C5.53112 16.8015 4.23157 15.8005 3.31836 14.4659C2.40516 13.0961 1.94856 11.498 1.94856 9.67155C1.94856 7.70465 2.44029 6.0363 3.42373 4.6665C4.44231 3.26157 5.88235 2.19032 7.74388 1.45273C9.60541 0.680021 11.7479 0.293666 14.1714 0.293666ZM14.2241 5.87825C12.5733 5.87825 11.2562 6.28216 10.2727 7.09C9.2893 7.89783 8.79758 9.02177 8.79758 10.4618C8.79758 11.9019 9.2893 13.0258 10.2727 13.8336C11.2562 14.6415 12.5733 15.0454 14.2241 15.0454C15.8398 15.0454 17.1218 14.6415 18.0701 13.8336C19.0535 13.0258 19.5453 11.9019 19.5453 10.4618C19.5453 9.02177 19.0711 7.89783 18.1228 7.09C17.1744 6.28216 15.8749 5.87825 14.2241 5.87825ZM14.2241 30.3766C15.5588 30.3766 16.7003 30.1835 17.6486 29.7971C18.5969 29.4108 19.317 28.8312 19.8087 28.0585C20.3355 27.2858 20.599 26.3726 20.599 25.3189C20.599 24.2652 20.3355 23.352 19.8087 22.5793C19.317 21.8066 18.5794 21.2271 17.5959 20.8407C16.6476 20.4192 15.5237 20.2085 14.2241 20.2085C12.9245 20.2085 11.783 20.4192 10.7996 20.8407C9.81615 21.2271 9.061 21.8066 8.53415 22.5793C8.0073 23.352 7.74388 24.2652 7.74388 25.3189C7.74388 26.3726 8.0073 27.2858 8.53415 28.0585C9.061 28.8312 9.79858 29.4108 10.7469 29.7971C11.7304 30.1835 12.8894 30.3766 14.2241 30.3766ZM49.8941 35.4871V27.3209H32.9296V22.5793C33.1053 22.2281 33.3511 21.8066 33.6672 21.3149C34.0185 20.788 34.4048 20.1909 34.8263 19.5236L47.7867 0.715145H56.4797V22.0525H62.117V27.3209H56.4797V35.4871H49.8941ZM39.1464 22.0525H49.9468V10.5672C49.9468 9.8296 49.9644 9.03933 49.9995 8.19638C50.0346 7.35342 50.0697 6.52802 50.1049 5.72019H49.9995C49.6131 6.4929 49.139 7.33586 48.577 8.24906C48.0502 9.12714 47.5584 9.91741 47.1018 10.6199L39.8313 21.0514C39.726 21.2271 39.603 21.4027 39.4626 21.5783C39.3572 21.7188 39.2518 21.8768 39.1464 22.0525Z" fill="#292E3D"/>
</svg>
