<svg width="20" height="13" viewBox="0 0 20 13" fill="none" xmlns="http://www.w3.org/2000/svg">
<path fill-rule="evenodd" clip-rule="evenodd" d="M0.880419 6.63461C0.880419 6.81787 0.952 6.99363 1.07942 7.12321C1.20683 7.2528 1.37965 7.3256 1.55984 7.3256L17.5847 7.3256L13.3084 11.6733C13.2452 11.7375 13.1951 11.8138 13.1609 11.8977C13.1268 11.9817 13.1092 12.0716 13.1092 12.1625C13.1092 12.2533 13.1268 12.3433 13.1609 12.4272C13.1951 12.5112 13.2452 12.5875 13.3084 12.6517C13.3716 12.7159 13.4466 12.7669 13.5291 12.8017C13.6116 12.8364 13.7001 12.8543 13.7894 12.8543C13.8788 12.8543 13.9672 12.8364 14.0498 12.8017C14.1323 12.7669 14.2073 12.7159 14.2705 12.6517L19.7059 7.12383C19.7691 7.05965 19.8193 6.98339 19.8536 6.89945C19.8878 6.8155 19.9055 6.7255 19.9055 6.63462C19.9055 6.54373 19.8878 6.45373 19.8536 6.36978C19.8193 6.28584 19.7691 6.20959 19.7059 6.1454L14.2705 0.617532C14.2073 0.553288 14.1323 0.502326 14.0498 0.467556C13.9672 0.432787 13.8788 0.414893 13.7894 0.414893C13.7001 0.414893 13.6116 0.432787 13.5291 0.467556C13.4466 0.502325 13.3716 0.553288 13.3084 0.617532C13.2452 0.681777 13.1951 0.758046 13.1609 0.841986C13.1268 0.925926 13.1092 1.01589 13.1092 1.10675C13.1092 1.1976 13.1268 1.28757 13.1609 1.37151C13.1951 1.45545 13.2452 1.53172 13.3084 1.59596L17.5847 5.94363L1.55984 5.94363C1.37965 5.94363 1.20683 6.01643 1.07942 6.14601C0.952 6.2756 0.880419 6.45135 0.880419 6.63461Z" fill="white"/>
</svg>
