<svg width="25" height="25" viewBox="0 0 25 25" fill="none" xmlns="http://www.w3.org/2000/svg">
<path d="M21.6756 0.159912H9.50325C8.14832 0.159912 7.05194 1.25629 7.05194 2.61122V9.48584L1.3176 15.147C1.14579 15.3169 1.02833 15.5341 0.980129 15.7709C0.931933 16.0077 0.955173 16.2535 1.0469 16.477C1.13863 16.7006 1.29471 16.8919 1.49533 17.0266C1.69595 17.1613 1.93207 17.2334 2.17373 17.2337V23.3314C2.17373 23.6549 2.30222 23.9651 2.53093 24.1938C2.75964 24.4225 3.06984 24.551 3.39328 24.551H22.9061C23.2296 24.551 23.5398 24.4225 23.7685 24.1938C23.9972 23.9651 24.1257 23.6549 24.1257 23.3314V2.61C24.1257 1.25629 23.0305 0.159912 21.6756 0.159912ZM11.835 16.1495V22.1119H4.61284V15.3214L8.25564 11.7249L11.835 15.3873V16.1495V16.1495ZM14.3693 8.69679H11.9302V6.25768H14.3693V8.69679ZM19.2475 18.4532H16.8084V16.0141H19.2475V18.4532ZM19.2475 13.575H16.8084V11.1359H19.2475V13.575ZM19.2475 8.69679H16.8084V6.25768H19.2475V8.69679Z" fill="#292E3D"/>
</svg>
