<svg width="24" height="25" viewBox="0 0 24 25" fill="none" xmlns="http://www.w3.org/2000/svg">
<path d="M20.2964 1.37947C19.488 1.38011 18.7128 1.70154 18.1412 2.27318C17.5696 2.84482 17.2481 3.61994 17.2475 4.42835C17.2475 4.86373 17.3426 5.27716 17.5085 5.654L15.1242 8.3358C14.3143 7.77673 13.3534 7.47729 12.3693 7.47724C11.4668 7.47724 10.6326 7.74066 9.907 8.1675L7.13373 5.39546L7.10568 5.42351C7.34471 4.93812 7.49106 4.39786 7.49106 3.81857C7.49106 3.09496 7.27648 2.3876 6.87446 1.78593C6.47245 1.18427 5.90104 0.715328 5.23251 0.438413C4.56398 0.161497 3.82834 0.0890437 3.11863 0.230214C2.40892 0.371384 1.75701 0.719838 1.24534 1.23151C0.733662 1.74318 0.385209 2.39509 0.244038 3.10481C0.102868 3.81452 0.175322 4.55015 0.452237 5.21868C0.729153 5.88722 1.19809 6.45862 1.79976 6.86064C2.40142 7.26266 3.10878 7.47724 3.8324 7.47724C4.41169 7.47724 4.95073 7.33089 5.43733 7.09186L5.40928 7.11991L8.18255 9.89195C7.73453 10.6359 7.49563 11.487 7.49106 12.3554C7.49106 13.5713 7.95449 14.6714 8.69232 15.5275L5.54953 18.6691C5.19728 18.5281 4.82159 18.4548 4.44218 18.4532C2.76163 18.4532 1.39329 19.8203 1.39329 21.5021C1.39329 23.1839 2.76163 24.551 4.44218 24.551C6.12272 24.551 7.49106 23.1839 7.49106 21.5021C7.49106 21.1106 7.41057 20.7387 7.2752 20.3935L10.7363 16.9324C11.2497 17.1154 11.7936 17.2337 12.3693 17.2337C15.0596 17.2337 17.2475 15.0458 17.2475 12.3554C17.2475 11.5798 17.0487 10.8566 16.7255 10.2042L19.3073 7.29796C19.6195 7.40528 19.9488 7.47724 20.2964 7.47724C21.9781 7.47724 23.3453 6.11012 23.3453 4.42835C23.3453 2.74659 21.9781 1.37947 20.2964 1.37947ZM12.3693 14.7946C11.0241 14.7946 9.93017 13.7006 9.93017 12.3554C9.93017 11.0103 11.0241 9.91634 12.3693 9.91634C13.7144 9.91634 14.8084 11.0103 14.8084 12.3554C14.8084 13.7006 13.7144 14.7946 12.3693 14.7946Z" fill="white"/>
</svg>
