<svg width="26" height="21" viewBox="0 0 26 21" fill="none" xmlns="http://www.w3.org/2000/svg">
<path d="M20.467 15.2335H18.0279V14.014H8.27148V15.2335H5.83238V14.014H0.954163V20.1117H25.3452V14.014H20.467V15.2335ZM22.9061 5.47709H19.2475V3.03798C19.2475 1.69648 18.1499 0.598877 16.8084 0.598877H9.49104C8.14953 0.598877 7.05193 1.69648 7.05193 3.03798V5.47709H3.39327C2.05176 5.47709 0.954163 6.57469 0.954163 7.9162V12.7944H5.83238V10.3553H8.27148V12.7944H18.0279V10.3553H20.467V12.7944H25.3452V7.9162C25.3452 6.57469 24.2476 5.47709 22.9061 5.47709ZM16.8084 5.47709H9.49104V3.03798H16.8084V5.47709Z" fill="white"/>
</svg>
