<svg width="30" height="30" viewBox="0 0 30 30" fill="none" xmlns="http://www.w3.org/2000/svg">
<path d="M27.2087 21.4402L20.4402 14.6717L22.3549 12.757L17.7816 8.18366L15.8669 10.0984L9.09835 3.32983L3.32986 9.09832L10.0984 15.8668L4.29331 21.6719V26.2452H8.86664L14.6717 20.4402L21.4402 27.2087L27.2087 21.4402ZM11.8302 14.1351L6.7812 9.09832L9.09835 6.78117L10.6472 8.33L9.19592 9.78127L10.9155 11.5008L12.3668 10.0496L14.1351 11.8179L11.8302 14.1351ZM16.4035 18.7084L18.7206 16.3913L20.489 18.1596L19.0377 19.6109L20.7573 21.3304L22.2086 19.8792L23.7574 21.428L21.4402 23.7452L16.4035 18.7084ZM19.0902 6.88239L22.1854 3.78595L26.7563 8.35683L23.661 11.4533L19.0902 6.88239Z" fill="#F9995D"/>
</svg>
