<svg width="28" height="28" viewBox="0 0 28 28" fill="none" xmlns="http://www.w3.org/2000/svg">
<path d="M25.2453 9.39106C25.8922 9.39106 26.5126 9.64804 26.97 10.1055C27.4274 10.5629 27.6844 11.1833 27.6844 11.8302V16.7084C27.6844 17.3553 27.4274 17.9757 26.97 18.4331C26.5126 18.8905 25.8922 19.1475 25.2453 19.1475H23.9501C23.6528 21.5053 22.5053 23.6735 20.7229 25.2453C18.9405 26.817 16.6457 27.6843 14.2693 27.6844V25.2453C16.21 25.2453 18.0712 24.4743 19.4434 23.1021C20.8157 21.7298 21.5866 19.8686 21.5866 17.9279V10.6106C21.5866 8.66994 20.8157 6.80875 19.4434 5.43649C18.0712 4.06422 16.21 3.29329 14.2693 3.29329C12.3286 3.29329 10.4674 4.06422 9.09516 5.43649C7.7229 6.80875 6.95197 8.66994 6.95197 10.6106V19.1475H3.29331C2.64642 19.1475 2.02602 18.8905 1.5686 18.4331C1.11118 17.9757 0.854202 17.3553 0.854202 16.7084V11.8302C0.854202 11.1833 1.11118 10.5629 1.5686 10.1055C2.02602 9.64804 2.64642 9.39106 3.29331 9.39106H4.58848C4.88608 7.03354 6.03374 4.86563 7.81611 3.29412C9.59848 1.72261 11.8931 0.855499 14.2693 0.855499C16.6455 0.855499 18.9401 1.72261 20.7225 3.29412C22.5048 4.86563 23.6525 7.03354 23.9501 9.39106H25.2453ZM9.09838 18.8853L10.3911 16.8169C11.5534 17.545 12.8977 17.9302 14.2693 17.9279C15.6408 17.9302 16.9851 17.545 18.1475 16.8169L19.4402 18.8853C17.8905 19.8562 16.0981 20.3699 14.2693 20.367C12.4405 20.3699 10.6481 19.8562 9.09838 18.8853Z" fill="#F9995D"/>
</svg>
